<svg width="36" height="36" viewBox="0 0 36 36" fill="none" xmlns="http://www.w3.org/2000/svg">
<path d="M28.9049 7.99507C26.9099 7.06507 24.7499 6.39007 22.4999 6.00007C22.4802 5.99944 22.4606 6.00314 22.4424 6.01092C22.4243 6.01869 22.4081 6.03035 22.3949 6.04507C22.1249 6.54007 21.8099 7.18507 21.5999 7.68007C19.2134 7.32007 16.7864 7.32007 14.3999 7.68007C14.1899 7.17007 13.8749 6.54007 13.5899 6.04507C13.5749 6.01507 13.5299 6.00007 13.4849 6.00007C11.2349 6.39007 9.08993 7.06507 7.07993 7.99507C7.06493 7.99507 7.04993 8.01007 7.03493 8.02507C2.95493 14.1301 1.82993 20.0701 2.38493 25.9501C2.38493 25.9801 2.39993 26.0101 2.42993 26.0251C5.12993 28.0051 7.72493 29.2051 10.2899 30.0001C10.3349 30.0151 10.3799 30.0001 10.3949 29.9701C10.9949 29.1451 11.5349 28.2751 11.9999 27.3601C12.0299 27.3001 11.9999 27.2401 11.9399 27.2251C11.0849 26.8951 10.2749 26.5051 9.47993 26.0551C9.41993 26.0251 9.41993 25.9351 9.46493 25.8901C9.62993 25.7701 9.79493 25.6351 9.95993 25.5151C9.98993 25.4851 10.0349 25.4851 10.0649 25.5001C15.2249 27.8551 20.7899 27.8551 25.8899 25.5001C25.9199 25.4851 25.9649 25.4851 25.9949 25.5151C26.1599 25.6501 26.3249 25.7701 26.4899 25.9051C26.5499 25.9501 26.5499 26.0401 26.4749 26.0701C25.6949 26.5351 24.8699 26.9101 24.0149 27.2401C23.9549 27.2551 23.9399 27.3301 23.9549 27.3751C24.4349 28.2901 24.9749 29.1601 25.5599 29.9851C25.6049 30.0001 25.6499 30.0151 25.6949 30.0001C28.2749 29.2051 30.8699 28.0051 33.5699 26.0251C33.5999 26.0101 33.6149 25.9801 33.6149 25.9501C34.2749 19.1551 32.5199 13.2601 28.9649 8.02507C28.9499 8.01007 28.9349 7.99507 28.9049 7.99507ZM12.7799 22.3651C11.2349 22.3651 9.94493 20.9401 9.94493 19.1851C9.94493 17.4301 11.2049 16.0051 12.7799 16.0051C14.3699 16.0051 15.6299 17.4451 15.6149 19.1851C15.6149 20.9401 14.3549 22.3651 12.7799 22.3651ZM23.2349 22.3651C21.6899 22.3651 20.3999 20.9401 20.3999 19.1851C20.3999 17.4301 21.6599 16.0051 23.2349 16.0051C24.8249 16.0051 26.0849 17.4451 26.0699 19.1851C26.0699 20.9401 24.8249 22.3651 23.2349 22.3651Z" fill="#F7F7F7"/>
</svg>
