<svg width="36" height="36" viewBox="0 0 36 36" fill="none" xmlns="http://www.w3.org/2000/svg">
<path d="M18 13.125C16.7071 13.125 15.4671 13.6386 14.5529 14.5529C13.6386 15.4671 13.125 16.7071 13.125 18C13.125 19.2929 13.6386 20.5329 14.5529 21.4471C15.4671 22.3614 16.7071 22.875 18 22.875C19.2929 22.875 20.5329 22.3614 21.4471 21.4471C22.3614 20.5329 22.875 19.2929 22.875 18C22.875 16.7071 22.3614 15.4671 21.4471 14.5529C20.5329 13.6386 19.2929 13.125 18 13.125Z" fill="#F7F7F7"/>
<path fill-rule="evenodd" clip-rule="evenodd" d="M10.155 4.62292C15.369 4.04497 20.6309 4.04497 25.845 4.62292C28.6935 4.94092 30.99 7.18342 31.3245 10.0424C31.9428 15.3294 31.9428 20.6704 31.3245 25.9574C30.99 28.8164 28.6935 31.0589 25.8465 31.3784C20.632 31.9565 15.3695 31.9565 10.155 31.3784C7.30648 31.0589 5.00998 28.8164 4.67548 25.9589C4.05707 20.6714 4.05707 15.3299 4.67548 10.0424C5.00998 7.18342 7.30648 4.94092 10.155 4.62292ZM25.5 8.99992C25.1021 8.99992 24.7206 9.15795 24.4393 9.43925C24.158 9.72056 24 10.1021 24 10.4999C24 10.8977 24.158 11.2793 24.4393 11.5606C24.7206 11.8419 25.1021 11.9999 25.5 11.9999C25.8978 11.9999 26.2793 11.8419 26.5606 11.5606C26.8419 11.2793 27 10.8977 27 10.4999C27 10.1021 26.8419 9.72056 26.5606 9.43925C26.2793 9.15795 25.8978 8.99992 25.5 8.99992ZM10.875 17.9999C10.875 16.1102 11.6256 14.298 12.9618 12.9618C14.298 11.6256 16.1103 10.8749 18 10.8749C19.8896 10.8749 21.7019 11.6256 23.0381 12.9618C24.3743 14.298 25.125 16.1102 25.125 17.9999C25.125 19.8896 24.3743 21.7019 23.0381 23.0381C21.7019 24.3742 19.8896 25.1249 18 25.1249C16.1103 25.1249 14.298 24.3742 12.9618 23.0381C11.6256 21.7019 10.875 19.8896 10.875 17.9999Z" fill="#F7F7F7"/>
</svg>
