<svg width="36" height="36" viewBox="0 0 36 36" fill="none" xmlns="http://www.w3.org/2000/svg">
<path d="M11.3085 33.7501C24.894 33.7501 32.3257 22.4933 32.3257 12.7486C32.3257 12.4336 32.3257 12.1141 32.3122 11.7991C33.7591 10.7517 35.0079 9.45494 36 7.96959C34.6485 8.56551 33.2162 8.95826 31.7498 9.13509C33.2944 8.21178 34.4514 6.75902 35.0055 5.04684C33.5542 5.90662 31.9658 6.51018 30.3097 6.83109C29.1964 5.6454 27.7232 4.85991 26.1182 4.5963C24.5132 4.33269 22.8661 4.60567 21.432 5.37295C19.9979 6.14024 18.8568 7.35901 18.1855 8.84048C17.5142 10.322 17.3502 11.9834 17.7188 13.5676C14.7819 13.4203 11.9088 12.6574 9.28585 11.3283C6.66286 9.99913 4.34854 8.13349 2.493 5.85234C1.55102 7.47928 1.26354 9.40375 1.68895 11.2349C2.11437 13.0661 3.22077 14.6668 4.7835 15.7118C3.61246 15.6721 2.46717 15.3576 1.44 14.7938V14.8951C1.44202 16.5994 2.03244 18.2508 3.11147 19.5701C4.19049 20.8893 5.69193 21.7956 7.362 22.1356C6.72809 22.3102 6.07327 22.3973 5.41575 22.3943C4.95221 22.3957 4.48961 22.3528 4.03425 22.2661C4.50627 23.7332 5.42536 25.016 6.66281 25.9347C7.90025 26.8534 9.39405 27.362 10.935 27.3893C8.31725 29.4454 5.08365 30.5605 1.755 30.5551C1.16847 30.5576 0.582352 30.5238 0 30.4538C3.37841 32.6077 7.30192 33.7513 11.3085 33.7501Z" fill="#F7F7F7"/>
</svg>
