<svg width="82" height="82" viewBox="0 0 82 82" fill="none" xmlns="http://www.w3.org/2000/svg">
<path fill-rule="evenodd" clip-rule="evenodd" d="M19.1019 29.2857C27.2963 20.1429 37.4028 20.4286 42.8658 26.1429C31.1204 29 40.1747 42.0694 49.4214 38.1429C59.296 33.9497 58.6571 17.9824 39.9222 11.1903C40.9776 11.0646 42.051 11 43.1389 11C58.5017 11 70.9602 23.8785 71 39.7808C69.0638 34.1235 66.373 30.0181 62.8056 27C65.659 39.118 61.9862 47.2857 53.2454 49C57.6158 37.5714 40.4381 38.1429 40.0472 49.8881C39.6921 60.5581 52.9521 66.319 67.2889 54.3729C62.8447 64.1962 53.2127 71 42.0463 71C36.6965 71 31.6988 69.4382 27.4551 66.7308C33.3209 67.8881 38.8193 67.849 42.8658 65.8571C31.1204 63.5714 26.4769 54.1429 28.3889 46.7143C36.5834 56.1429 44.2316 41.2857 34.9445 34.7143C26.0936 29.3839 13.5557 37.5414 16.7254 56.5125C13.7414 51.9168 12 46.3833 12 40.4286C12 30.0322 17.308 20.9199 25.2701 15.8404C21.7409 20.2408 19.7039 24.7332 19.1019 29.2857Z" fill="#985AEA"/>
</svg>
