<svg width="82" height="82" viewBox="0 0 82 82" fill="none" xmlns="http://www.w3.org/2000/svg">
<path d="M41.039 69.8213C49.8482 61.7295 77.908 56.2271 60.2891 41.6618C67.7934 52.343 55.721 64.3188 42.3438 64.3188C27.9877 64.9662 24.0724 48.1353 38.1023 50.7246C28.6405 58.8164 41.365 66.5845 51.8059 58.8164C57.6788 53.9614 57.0263 44.5855 44.6278 39.7198C14.9366 28.0676 42.0173 18.3575 39.7336 8C58.3314 24.1836 32.8818 24.1836 41.039 34.8647C40.1003 28.9176 41.6724 26.2265 48.217 22.5652C46.204 31.3103 47.2278 35.2686 52.7849 40.6908C48.1377 34.0818 48.5431 29.3623 53.4372 25.4783C54.7423 37.4541 69.1076 39.3961 69.4248 50.7246C69.7329 61.7295 51.1533 65.2899 41.039 75C27.0088 62.3768 11.9747 60.4286 12.0001 51.6957C12.0196 44.973 18.1993 40.0435 27.6614 26.4493C28.6402 34.2174 35.1658 36.8068 40.7125 39.3961C27.0089 40.3671 23.4198 51.6957 28.6405 59.4638C23.4199 57.8454 14.9367 52.6667 21.7885 40.6908C5.47469 57.5217 32.2294 60.4348 41.039 69.8213Z" fill="#F04D43"/>
<path d="M44.2585 58.7285C47.7324 51.8552 41.8268 45.3255 32.1 48.7622C32.7948 42.2325 42.9878 41.0485 47.7324 43.9508C53.1382 47.2577 55.3748 55.6355 44.2585 58.7285Z" fill="#F04D43"/>
</svg>
