<svg width="52" height="64" viewBox="0 0 52 64" fill="none" xmlns="http://www.w3.org/2000/svg">
<path d="M25.8732 58.8015C33.7221 51.105 58.7229 45.8713 43.0248 32.0176C49.711 42.177 38.9546 53.5679 27.0358 53.5679C14.2447 54.1836 10.7563 38.1748 23.2567 40.6377C14.8264 48.3342 26.1637 55.7229 35.4663 48.3342C40.6991 43.7163 40.1177 34.7985 29.0708 30.1704C2.61648 19.0874 26.7449 9.85156 24.7102 0C41.2805 15.3931 18.6054 15.3931 25.8732 25.5525C25.0369 19.8958 26.4376 17.3362 32.2688 13.8538C30.4752 22.1717 31.3874 25.9366 36.3387 31.094C32.1981 24.8078 32.5593 20.3188 36.9199 16.6245C38.0827 28.0154 50.8819 29.8625 51.1645 40.6377C51.4391 51.105 34.8849 54.4914 25.8732 63.7273C13.3726 51.7207 -0.0225427 49.8676 7.09733e-05 41.5613C0.0174791 35.167 5.5235 30.4783 13.954 17.5481C14.8262 24.9368 20.6403 27.3996 25.5823 29.8625C13.3726 30.7861 10.1749 41.5613 14.8264 48.9499C10.1749 47.4106 2.61656 42.4848 8.72142 31.094C-5.81394 47.1028 18.0241 49.8735 25.8732 58.8015Z" fill="#F04D43"/>
<path d="M28.3691 47.5426C31.424 41.5605 26.2306 35.8775 17.6768 38.8685C18.2877 33.1855 27.2516 32.1551 31.424 34.6811C36.178 37.5591 38.1449 44.8506 28.3691 47.5426Z" fill="#F04D43"/>
</svg>
