<svg width="82" height="82" viewBox="0 0 82 82" fill="none" xmlns="http://www.w3.org/2000/svg">
<path fill-rule="evenodd" clip-rule="evenodd" d="M40.9277 9L40.8314 9.19072L40.8314 9.19074C37.7276 15.3418 35.7671 19.2269 31.9364 24.8654C33.2586 24.8654 34.052 24.8654 35.3742 24.3183C38.4724 29.7847 39.4774 32.7298 40.9277 38.5424C42.3779 32.7298 43.383 29.7847 46.4811 24.3183C47.8033 24.8654 48.5967 24.8654 49.9189 24.8654C46.0882 19.2269 44.1278 15.3418 41.0239 9.19074L41.0239 9.19072L40.9277 9ZM40.9277 19.3946L38.4755 22.6771C39.7783 25.3948 40.2348 27.305 40.9277 30.8833C41.6206 27.305 42.0771 25.3948 43.3799 22.6771L40.9277 19.3946ZM69 25.2963L68.7873 25.308C61.9294 25.6849 57.5978 25.9229 50.8187 25.4115C51.4798 26.5612 51.8765 27.2509 53.0095 28.127C49.8432 33.5539 47.8053 35.9003 43.5163 40.0675C49.2555 38.4221 52.2985 37.8235 58.5629 37.7839C58.7522 39.2071 59.1488 39.8968 59.8099 41.0465C62.7584 34.8966 65.1295 31.2495 68.8836 25.4754L69 25.2963ZM60.0336 30.4936L55.976 30.0028C54.283 32.4944 52.8635 33.8464 50.1233 36.238C53.5564 35.0513 55.4324 34.4931 58.4281 34.2669L60.0336 30.4936ZM13.1164 25.4769L13 25.2978L13.2126 25.3095C20.0706 25.6864 24.4021 25.9244 31.1813 25.413C30.5202 26.5626 30.1235 27.2524 28.9904 28.1285C32.1568 33.5554 34.1947 35.9018 38.4836 40.069C32.7445 38.4236 29.7015 37.8249 23.437 37.7854C23.2478 39.2086 22.8511 39.8983 22.19 41.048C19.2416 34.8981 16.8705 31.251 13.1164 25.4769ZM23.5719 34.2683L21.9665 30.495L26.0241 30.0042C27.717 32.4958 29.1366 33.8478 31.8768 36.2394C28.4437 35.0527 26.5677 34.4945 23.5719 34.2683ZM42.6509 34.0428L45.7647 33.005L46.4263 36.2312L41.3303 41.1813L48.1466 39.226L50.5987 41.4144L48.1466 43.6027L41.3275 41.6467L46.4244 46.5976L45.7628 49.8238L42.649 48.7859L40.9263 41.8772L39.2036 48.786L36.0898 49.8239L35.4282 46.5977L40.5242 41.6476L33.7077 43.6029L31.2555 41.4146L33.7077 39.2263L40.5266 41.1822L35.4299 36.2315L36.0915 33.0053L39.2052 34.0432L40.9281 40.9523L42.6509 34.0428ZM68.8836 57.3957L69 57.5747L68.7873 57.563H68.7873C61.9294 57.1861 57.5978 56.9481 50.8187 57.4595C51.4798 56.3099 51.8765 55.6201 53.0095 54.744C49.8432 49.3171 47.8053 46.9707 43.5163 42.8035C49.2555 44.4489 52.2985 45.0476 58.5629 45.0871C58.7522 43.6639 59.1488 42.9742 59.8099 41.8245C62.7584 47.9744 65.1295 51.6215 68.8836 57.3957ZM58.428 48.6042L60.0334 52.3775L55.9758 52.8683C54.2829 50.3767 52.8634 49.0247 50.1231 46.6331C53.5563 47.8198 55.4323 48.378 58.428 48.6042ZM13 57.5747L13.2126 57.563H13.2127H13.2127H13.2127H13.2127C20.0706 57.1861 24.4022 56.9481 31.1813 57.4595C30.5202 56.3099 30.1235 55.6201 28.9904 54.744C32.1568 49.3171 34.1947 46.9707 38.4836 42.8035C32.7445 44.4489 29.7015 45.0476 23.437 45.0871C23.2478 43.6639 22.8511 42.9742 22.19 41.8245C19.2416 47.9744 16.8705 51.6215 13.1164 57.3956L13.1164 57.3957L13 57.5747ZM21.9665 52.3774L26.0241 52.8682C27.717 50.3766 29.1366 49.0246 31.8768 46.633C28.4437 47.8197 26.5676 48.3779 23.5719 48.6041L21.9665 52.3774ZM41.2259 73.713L41.1296 73.9037L41.0334 73.713C37.9295 67.5619 35.9691 63.6768 32.1384 58.0383C33.4606 58.0383 34.254 58.0383 35.5762 58.5854C38.6743 53.119 39.6794 50.1739 41.1296 44.3613C42.5799 50.1739 43.5849 53.119 46.6831 58.5854C48.0053 58.0383 48.7987 58.0383 50.1209 58.0383C46.2902 63.6768 44.3297 67.5619 41.2259 73.713ZM43.3806 60.152L40.9285 63.4345L38.4763 60.152C39.7791 57.4343 40.2356 55.5241 40.9285 51.9458C41.6213 55.5241 42.0778 57.4343 43.3806 60.152Z" fill="#5BD6DF"/>
</svg>
