<svg width="82" height="82" viewBox="0 0 82 82" fill="none" xmlns="http://www.w3.org/2000/svg">
<path d="M40.6267 66C45.0545 66 48.3016 63.375 49.7775 60.4583C42.9882 66 34.3003 63.9583 34.4278 57.25C34.4278 52.5833 41.2171 50.25 42.9882 55.5C43.4282 56.5144 44.4642 58.125 47.1209 58.125C50.3679 58.125 51.2103 55.2016 50.9583 53.4583C50.3679 49.375 46.5305 45 40.3315 45C34.4278 45 30 49.6667 30 55.5C30 61.3333 34.723 66 40.6267 66Z" fill="#2993F4"/>
<path fill-rule="evenodd" clip-rule="evenodd" d="M41.0101 70.9961C58.3573 71.2599 71 58.0531 71 41.4981C71 25.2067 57.5729 12 41.0098 12C29.9831 12 20.4286 18.321 16.0181 25.846C14.4221 28.254 14.8422 30.9131 16.3122 32.167C18.0764 33.672 20.7812 33.672 22.7806 31.264C27.7789 25.244 33.5634 22.234 41.3038 22.234C54.1321 22.234 64.5315 32.6107 64.5315 45.4111C64.5315 56.2439 58.0633 62.8691 53.653 64.6751C56.8872 62.5681 62.1797 57.7209 62.1797 48.4211C62.1797 37.2831 52.965 28.254 41.5982 28.254C37.0243 28.254 34.6612 29.0992 33.6596 29.458C31.8954 30.09 30.4813 32.167 30.8608 34.575C31.0972 36.0746 32.6065 38.8445 36.8938 37.8861C38.0275 37.6326 40.0907 37.284 41.3042 37.284C49.9105 37.284 56.5932 44.0222 56.5932 52.3341C56.5932 60.646 49.6164 67.0831 41.0101 67.0831C36.3057 67.0831 29.5432 66.4811 22.4867 61.6651C26.015 67.0831 31.8954 70.3941 41.0101 70.9961Z" fill="#2993F4"/>
<circle cx="16.5" cy="41.5" r="4.5" fill="#2993F4"/>
<circle cx="21.5" cy="54.5" r="3.5" fill="#2993F4"/>
</svg>
