<svg width="82" height="82" viewBox="0 0 82 82" fill="none" xmlns="http://www.w3.org/2000/svg">
<path d="M41.5014 10C35.1569 18.2172 34.0536 22.6193 41.5014 27.0213C48.9493 22.6193 47.8459 18.2172 41.5014 10Z" fill="#2CC76E"/>
<path d="M7.4588 45.1527C11.3888 48.325 13.4941 48.8767 15.5994 45.1527C13.4941 41.4288 11.3888 41.9805 7.4588 45.1527Z" fill="#2CC76E"/>
<path d="M9.26596 22.3557C11.495 29.8141 13.6932 32.3584 19.6318 29.496C20.2088 22.9403 17.0453 21.7913 9.26596 22.3557Z" fill="#2CC76E"/>
<path fill-rule="evenodd" clip-rule="evenodd" d="M73.9098 22.356C71.6807 29.8144 69.4826 32.3587 63.544 29.4962C62.967 22.9405 66.1304 21.7915 73.9098 22.356ZM76 45.1894C71.8811 48.6649 69.6746 49.2693 67.4681 45.1894C69.6746 41.1094 71.8811 41.7139 76 45.1894ZM9.26634 22.356C11.4954 29.8144 13.6935 32.3587 19.6321 29.4962C20.2091 22.9405 17.0457 21.7916 9.26634 22.356ZM7.17615 45.1894C11.295 48.6649 13.5015 49.2694 15.708 45.1894C13.5015 41.1095 11.295 41.7139 7.17615 45.1894Z" fill="#2CC76E"/>
<path fill-rule="evenodd" clip-rule="evenodd" d="M41.3011 29.1832C41.8715 29.8362 39.4973 32.5901 39.0194 32.0223C30.1778 21.5177 14.7763 33.4418 20.4805 45.9337C23.6908 52.9639 29.5206 55.4082 34.3099 57.4162C38.0306 58.9762 41.1233 60.2729 41.8715 63.252C42.6197 60.2729 45.7124 58.9762 49.4332 57.4162C54.2224 55.4082 60.0523 52.9639 63.2625 45.9337C68.9667 33.4418 53.5653 21.5177 44.7236 32.0223C44.2457 32.5901 41.8715 29.8362 42.4419 29.1832C53.8505 16.1235 72.9597 30.3188 68.1111 46.2176C65.6195 54.3876 59.8893 57.4596 54.3265 60.4419C49.064 63.2632 43.9513 66.0042 41.8715 72.9049C39.7918 66.0042 34.679 63.2632 29.4166 60.4419C23.8537 57.4596 18.1235 54.3876 15.6319 46.2176C10.7833 30.3188 29.8926 16.1235 41.3011 29.1832Z" fill="#2CC76E"/>
<path d="M26.0719 44.8411C16.6886 35.6442 32.2298 27.2833 36.9215 35.6442C33.1095 34.8081 29.2975 37.8737 30.1772 42.0542C31.0569 46.2346 36.9215 48.4642 37.8012 52.9233C31.9366 48.7429 28.4178 46.792 22.2599 47.3494C22.6685 45.9114 24.4335 45.0856 26.0719 44.8411Z" fill="#2CC76E"/>
<path d="M56.931 44.8411C66.3144 35.6442 50.7731 27.2833 46.0814 35.6442C49.8934 34.8081 53.7054 37.8737 52.8258 42.0542C51.9461 46.2346 46.0814 48.4642 45.2018 52.9233C51.0664 48.7429 54.5851 46.792 60.743 47.3494C60.3344 45.9114 58.5694 45.0856 56.931 44.8411Z" fill="#2CC76E"/>
</svg>
