<svg width="82" height="82" viewBox="0 0 82 82" fill="none" xmlns="http://www.w3.org/2000/svg">
<path d="M71.0001 40.8334C70.5278 42.134 66.384 47.8058 63.9788 49.0137C57.2488 32.7323 51.7473 25.7343 41 14.4048C32.6368 22.772 28.8724 27.9337 28.2341 32.6531C33.0129 28.3633 35.8432 26.2196 41 22.5851C46.5542 27.9526 49.307 31.437 53.766 38.3164C51.3123 41.6179 45.575 45.7135 42.2766 47.7552C41.2626 46.961 40.7043 46.25 39.7234 44.6089C42.6448 42.1702 44.1806 40.6784 46.7447 37.6871C45.5808 34.4253 44.2448 32.8035 41 30.1361C34.9093 33.007 31.2015 36.6549 25.6809 42.0919C22.3238 36.9452 21.1747 34.0577 20.5745 28.8776C27.595 20.615 32.1914 16.6048 41 10.0001C50.0749 16.6031 65.7176 30.456 71.0001 40.8334Z" fill="#E3C348"/>
<path d="M11 40.8331C11.4723 39.5326 15.616 33.8607 18.0213 32.6528C24.7513 48.9342 30.2528 55.9322 41 67.2617C49.3632 58.8945 53.1277 53.7328 53.766 49.0134C48.9871 53.3033 46.1568 55.447 41 59.0814C35.4458 53.7139 32.693 50.2295 28.2341 43.3501C30.6878 40.0486 36.4251 35.953 39.7234 33.9113C40.7374 34.7055 41.2957 35.4166 42.2766 37.0576C39.3553 39.4963 37.8195 40.9881 35.2553 43.9794C36.4193 47.2413 37.7553 48.863 41 51.5304C47.0907 48.6596 50.7986 45.0116 56.3192 39.5746C59.6763 44.7213 60.8254 47.6088 61.4255 52.7889C54.4051 61.0515 49.8086 65.0617 41 71.6665C31.9251 65.0634 16.2824 51.2105 11 40.8331Z" fill="#E3C348"/>
</svg>
